<svg version="1.1" viewBox="0.0 0.0 960.0 720.0" fill="none" stroke="none" stroke-linecap="square" stroke-miterlimit="10" xmlns:xlink="http://www.w3.org/1999/xlink" xmlns="http://www.w3.org/2000/svg"><clipPath id="p.0"><path d="m0 0l960.0 0l0 720.0l-960.0 0l0 -720.0z" clip-rule="nonzero"/></clipPath><g clip-path="url(#p.0)"><path fill="#000000" fill-opacity="0.0" d="m0 0l960.0 0l0 720.0l-960.0 0z" fill-rule="evenodd"/><path fill="#00ff00" d="m455.84265 580.714l-217.1181 0l0 -164.7244l41.18112 0l-82.36221 -82.36218l-82.36221 82.36218l41.181107 0l0 247.08664l299.4803 0z" fill-rule="evenodd"/><path stroke="#000000" stroke-width="1.0" stroke-linejoin="round" stroke-linecap="butt" d="m455.84265 580.714l-217.1181 0l0 -164.7244l41.18112 0l-82.36221 -82.36218l-82.36221 82.36218l41.181107 0l0 247.08664l299.4803 0z" fill-rule="evenodd"/><path fill="#00ff00" d="m714.4343 359.99933l0 217.1181l-164.72443 0l0 -41.18109l-82.36218 82.36218l82.36218 82.36224l0 -41.18109l247.08667 0l0 -299.48035z" fill-rule="evenodd"/><path stroke="#000000" stroke-width="1.0" stroke-linejoin="round" stroke-linecap="butt" d="m714.4343 359.99933l0 217.1181l-164.72443 0l0 -41.18109l-82.36218 82.36218l82.36218 82.36224l0 -41.18109l247.08667 0l0 -299.48035z" fill-rule="evenodd"/><path fill="#00ff00" d="m272.6882 364.9952l199.70712 -199.70715l139.67413 139.67413l-36.41577 36.415802l133.685 0l0 -133.68503l-36.41577 36.415802l-200.52759 -200.52756l-260.56055 260.56058z" fill-rule="evenodd"/><path stroke="#000000" stroke-width="1.0" stroke-linejoin="round" stroke-linecap="butt" d="m272.6882 364.9952l199.70712 -199.70715l139.67413 139.67413l-36.41577 36.415802l133.685 0l0 -133.68503l-36.41577 36.415802l-200.52759 -200.52756l-260.56055 260.56058z" fill-rule="evenodd"/></g></svg>